<svg width="62" height="58" viewBox="0 0 62 58" fill="none" xmlns="http://www.w3.org/2000/svg">
<path id="Vector" d="M17.3794 33.3065L26.5558 24.13L6.48437 4.09099C4.92794 2.53456 2.23661 2.95609 1.26385 4.96648C-1.03837 9.79789 -0.195306 15.7318 3.79304 19.7526L17.3794 33.3065ZM39.3639 27.4374C44.3251 29.7396 51.2966 28.1184 56.4522 22.9627C62.6455 16.7694 63.8453 7.88478 59.0787 3.11822C54.3446 -1.61592 45.4599 -0.448599 39.2342 5.74469C34.0786 10.9004 32.4573 17.8719 34.7595 22.833L5.3819 52.2106C4.77561 52.8169 4.435 53.6392 4.435 54.4966C4.435 55.354 4.77561 56.1763 5.3819 56.7826C5.98818 57.3889 6.81049 57.7295 7.6679 57.7295C8.52532 57.7295 9.34762 57.3889 9.95391 56.7826L30.0254 36.776L50.0644 56.815C50.3646 57.1152 50.721 57.3534 51.1132 57.5158C51.5054 57.6783 51.9258 57.7619 52.3504 57.7619C52.7749 57.7619 53.1953 57.6783 53.5876 57.5158C53.9798 57.3534 54.3362 57.1152 54.6364 56.815C54.9366 56.5148 55.1747 56.1584 55.3372 55.7662C55.4997 55.374 55.5833 54.9536 55.5833 54.529C55.5833 54.1045 55.4997 53.6841 55.3372 53.2918C55.1747 52.8996 54.9366 52.5432 54.6364 52.243L34.5974 32.204L39.3639 27.4374Z" fill="#2091F9"/>
</svg>
