<svg width="62" height="58" viewBox="0 0 62 58" fill="none" xmlns="http://www.w3.org/2000/svg">
<path id="Vector" d="M62 40.4535V51.9207C62 53.4413 61.3468 54.8996 60.1841 55.9749C59.0213 57.0502 57.4443 57.6542 55.8 57.6542H43.4V51.9207C43.4 50.4 42.7468 48.9417 41.5841 47.8664C40.4213 46.7912 38.8443 46.1871 37.2 46.1871C35.5557 46.1871 33.9787 46.7912 32.8159 47.8664C31.6532 48.9417 31 50.4 31 51.9207V57.6542H18.6C16.9557 57.6542 15.3787 57.0502 14.2159 55.9749C13.0532 54.8996 12.4 53.4413 12.4 51.9207V40.4535H6.2C4.55566 40.4535 2.97866 39.8494 1.81594 38.7742C0.653212 37.6989 0 36.2406 0 34.7199C0 33.1993 0.653212 31.7409 1.81594 30.6657C2.97866 29.5904 4.55566 28.9864 6.2 28.9864H12.4V17.5192C12.4 14.3657 15.19 11.7856 18.6 11.7856H31V6.05206C31 4.53142 31.6532 3.07306 32.8159 1.99781C33.9787 0.922553 35.5557 0.318481 37.2 0.318481C38.8443 0.318481 40.4213 0.922553 41.5841 1.99781C42.7468 3.07306 43.4 4.53142 43.4 6.05206V11.7856H55.8C57.4443 11.7856 59.0213 12.3897 60.1841 13.465C61.3468 14.5402 62 15.9986 62 17.5192V28.9864H55.8C54.1557 28.9864 52.5787 29.5904 51.4159 30.6657C50.2532 31.7409 49.6 33.1993 49.6 34.7199C49.6 36.2406 50.2532 37.6989 51.4159 38.7742C52.5787 39.8494 54.1557 40.4535 55.8 40.4535H62Z" fill="#2091F9"/>
</svg>
